<svg width="40" height="40" viewBox="0 0 40 40" fill="none" xmlns="http://www.w3.org/2000/svg">
<path d="M31.6668 6.66659H28.3335V4.99992C28.3335 4.55789 28.1579 4.13397 27.8453 3.82141C27.5328 3.50885 27.1089 3.33325 26.6668 3.33325C26.2248 3.33325 25.8009 3.50885 25.4883 3.82141C25.1758 4.13397 25.0002 4.55789 25.0002 4.99992V6.66659H15.0002V4.99992C15.0002 4.55789 14.8246 4.13397 14.512 3.82141C14.1994 3.50885 13.7755 3.33325 13.3335 3.33325C12.8915 3.33325 12.4675 3.50885 12.155 3.82141C11.8424 4.13397 11.6668 4.55789 11.6668 4.99992V6.66659H8.3335C7.00741 6.66659 5.73564 7.19337 4.79796 8.13105C3.86028 9.06873 3.3335 10.3405 3.3335 11.6666V31.6666C3.3335 32.9927 3.86028 34.2644 4.79796 35.2021C5.73564 36.1398 7.00741 36.6666 8.3335 36.6666H31.6668C32.9929 36.6666 34.2647 36.1398 35.2024 35.2021C36.14 34.2644 36.6668 32.9927 36.6668 31.6666V11.6666C36.6668 10.3405 36.14 9.06873 35.2024 8.13105C34.2647 7.19337 32.9929 6.66659 31.6668 6.66659ZM33.3335 31.6666C33.3335 32.1086 33.1579 32.5325 32.8453 32.8451C32.5328 33.1577 32.1089 33.3333 31.6668 33.3333H8.3335C7.89147 33.3333 7.46755 33.1577 7.15499 32.8451C6.84242 32.5325 6.66683 32.1086 6.66683 31.6666V19.9999H33.3335V31.6666ZM33.3335 16.6666H6.66683V11.6666C6.66683 11.2246 6.84242 10.8006 7.15499 10.4881C7.46755 10.1755 7.89147 9.99992 8.3335 9.99992H11.6668V11.6666C11.6668 12.1086 11.8424 12.5325 12.155 12.8451C12.4675 13.1577 12.8915 13.3333 13.3335 13.3333C13.7755 13.3333 14.1994 13.1577 14.512 12.8451C14.8246 12.5325 15.0002 12.1086 15.0002 11.6666V9.99992H25.0002V11.6666C25.0002 12.1086 25.1758 12.5325 25.4883 12.8451C25.8009 13.1577 26.2248 13.3333 26.6668 13.3333C27.1089 13.3333 27.5328 13.1577 27.8453 12.8451C28.1579 12.5325 28.3335 12.1086 28.3335 11.6666V9.99992H31.6668C32.1089 9.99992 32.5328 10.1755 32.8453 10.4881C33.1579 10.8006 33.3335 11.2246 33.3335 11.6666V16.6666Z" fill="#FEA82F"/>
</svg>
