<svg width="31" height="25" viewBox="0 0 31 25" fill="none" xmlns="http://www.w3.org/2000/svg">
<path d="M17.2962 24.8071C17.235 24.746 17.1865 24.6734 17.1534 24.5935C17.1203 24.5137 17.1033 24.4281 17.1033 24.3416C17.1033 24.2552 17.1203 24.1695 17.1534 24.0897C17.1865 24.0098 17.235 23.9373 17.2962 23.8762L28.0146 13.1578L0.656984 13.1578C0.482505 13.1578 0.315174 13.0885 0.191799 12.9651C0.0684237 12.8417 -0.000887471 12.6744 -0.000887464 12.4999C-0.000887456 12.3254 0.0684237 12.1581 0.191799 12.0347C0.315174 11.9114 0.482505 11.8421 0.656984 11.8421L28.0146 11.8421L17.2962 1.12368C17.2351 1.06256 17.1866 0.989994 17.1535 0.910133C17.1204 0.830272 17.1034 0.744678 17.1034 0.658237C17.1034 0.571796 17.1204 0.486201 17.1535 0.40634C17.1866 0.326479 17.2351 0.253915 17.2962 0.192792C17.3573 0.131669 17.4299 0.083184 17.5097 0.0501045C17.5896 0.017025 17.6752 -5.50174e-07 17.7616 -5.46396e-07C17.8481 -5.42617e-07 17.9337 0.017025 18.0135 0.0501045C18.0934 0.083184 18.166 0.131669 18.2271 0.192792L30.0688 12.0345C30.1299 12.0956 30.1785 12.1681 30.2116 12.248C30.2447 12.3279 30.2617 12.4135 30.2617 12.4999C30.2617 12.5864 30.2447 12.672 30.2116 12.7519C30.1785 12.8317 30.1299 12.9043 30.0688 12.9654L18.2271 24.8071C18.166 24.8682 18.0934 24.9167 18.0136 24.9499C17.9337 24.983 17.8481 25 17.7616 25C17.6752 25 17.5896 24.983 17.5097 24.9499C17.4299 24.9167 17.3573 24.8682 17.2962 24.8071Z" fill="#DA4167"/>
</svg>
