<svg width="31" height="25" viewBox="0 0 31 25" fill="none" xmlns="http://www.w3.org/2000/svg">
<path d="M12.9655 24.8071C13.0267 24.746 13.0752 24.6734 13.1083 24.5935C13.1414 24.5137 13.1585 24.4281 13.1585 24.3416C13.1585 24.2552 13.1414 24.1695 13.1083 24.0897C13.0752 24.0098 13.0267 23.9373 12.9655 23.8762L2.24715 13.1578L29.6047 13.1578C29.7792 13.1578 29.9465 13.0885 30.0699 12.9651C30.1933 12.8417 30.2626 12.6744 30.2626 12.4999C30.2626 12.3254 30.1933 12.1581 30.0699 12.0347C29.9465 11.9114 29.7792 11.8421 29.6047 11.8421L2.24715 11.8421L12.9655 1.12368C13.0266 1.06256 13.0751 0.989994 13.1082 0.910133C13.1413 0.830272 13.1583 0.744678 13.1583 0.658237C13.1583 0.571796 13.1413 0.486201 13.1082 0.40634C13.0751 0.326479 13.0266 0.253915 12.9655 0.192792C12.9044 0.131669 12.8318 0.083184 12.752 0.0501045C12.6721 0.017025 12.5865 -5.50174e-07 12.5001 -5.46396e-07C12.4136 -5.42617e-07 12.328 0.017025 12.2482 0.0501045C12.1683 0.083184 12.0958 0.131669 12.0346 0.192792L0.192945 12.0345C0.131779 12.0956 0.0832551 12.1681 0.0501482 12.248C0.0170413 12.3279 5.4261e-07 12.4135 5.46389e-07 12.4999C5.50168e-07 12.5864 0.0170413 12.672 0.0501483 12.7519C0.0832552 12.8317 0.131779 12.9043 0.192945 12.9654L12.0346 24.8071C12.0957 24.8682 12.1683 24.9167 12.2482 24.9499C12.328 24.983 12.4136 25 12.5001 25C12.5865 25 12.6721 24.983 12.752 24.9499C12.8319 24.9167 12.9044 24.8682 12.9655 24.8071Z" fill="#DA4167"/>
</svg>
