<svg width="35" height="35" viewBox="0 0 35 35" fill="none" xmlns="http://www.w3.org/2000/svg">
<path d="M14.2207 2.2425C16.5903 2.24033 18.9072 2.94101 20.8785 4.25587C22.8497 5.57074 24.3867 7.44073 25.295 9.62927C26.2032 11.8178 26.442 14.2266 25.9811 16.5508C25.5201 18.8751 24.3802 21.0105 22.7054 22.6867C21.0307 24.363 18.8964 25.5049 16.5725 25.968C14.2487 26.4311 11.8397 26.1945 9.65033 25.2882C7.46096 24.3819 5.58957 22.8467 4.2729 20.8766C2.95623 18.9066 2.25345 16.5903 2.25344 14.2207C2.26781 11.0502 3.53291 8.0135 5.7738 5.77057C8.01468 3.52764 11.0502 2.25976 14.2207 2.2425ZM14.2207 0C11.4081 0 8.65871 0.834031 6.32012 2.39662C3.98153 3.95922 2.15883 6.18019 1.08249 8.77869C0.00616182 11.3772 -0.275456 14.2365 0.273254 16.9951C0.821963 19.7536 2.17636 22.2875 4.16516 24.2763C6.15396 26.2651 8.68785 27.6195 11.4464 28.1682C14.205 28.7169 17.0643 28.4353 19.6628 27.359C22.2613 26.2826 24.4822 24.4599 26.0448 22.1213C27.6074 19.7827 28.4415 17.0333 28.4415 14.2207C28.4415 10.4492 26.9432 6.83206 24.2763 4.16515C21.6094 1.49825 17.9923 0 14.2207 0Z" fill="url(#paint0_angular_112_385)"/>
<path d="M34.644 33.1343L26.5819 25.0175L25.0286 26.5599L33.0906 34.6767C33.1919 34.7787 33.3123 34.8597 33.4449 34.9152C33.5775 34.9707 33.7197 34.9995 33.8634 35C34.0072 35.0005 34.1496 34.9727 34.2826 34.9182C34.4156 34.8636 34.5365 34.7834 34.6385 34.6822C34.7405 34.5809 34.8215 34.4605 34.877 34.3279C34.9325 34.1953 34.9613 34.0531 34.9618 33.9094C34.9623 33.7656 34.9345 33.6232 34.88 33.4902C34.8254 33.3572 34.7452 33.2363 34.644 33.1343Z" fill="url(#paint1_angular_112_385)"/>
<defs>
<radialGradient id="paint0_angular_112_385" cx="0" cy="0" r="1" gradientUnits="userSpaceOnUse" gradientTransform="translate(17.0649 14.2207) rotate(101.31) scale(14.5024 21.7736)">
<stop offset="0.075" stop-color="#DA4167"/>
<stop offset="1" stop-color="#FEA82F"/>
</radialGradient>
<radialGradient id="paint1_angular_112_385" cx="0" cy="0" r="1" gradientUnits="userSpaceOnUse" gradientTransform="translate(30.9885 30.0088) rotate(101.256) scale(5.08912 7.60593)">
<stop offset="0.075" stop-color="#DA4167"/>
<stop offset="1" stop-color="#FEA82F"/>
</radialGradient>
</defs>
</svg>
