<svg width="32" height="40" viewBox="0 0 32 40" fill="none" xmlns="http://www.w3.org/2000/svg">
<path d="M15.8974 0C11.6826 0.00472636 7.64184 1.66187 4.66153 4.60787C1.68122 7.55388 0.00478139 11.5482 0 15.7144C0 29.161 14.4522 39.3165 15.0682 39.7415C15.3112 39.9097 15.6007 40 15.8974 40C16.1941 40 16.4836 39.9097 16.7266 39.7415C17.3427 39.3165 31.7949 29.161 31.7949 15.7144C31.7901 11.5482 30.1137 7.55388 27.1333 4.60787C24.153 1.66187 20.1122 0.00472636 15.8974 0ZM15.8974 10.0001C17.0408 10.0001 18.1585 10.3352 19.1091 10.9631C20.0598 11.591 20.8007 12.4835 21.2383 13.5277C21.6758 14.5718 21.7903 15.7208 21.5672 16.8293C21.3442 17.9377 20.7936 18.9559 19.9851 19.7551C19.1767 20.5543 18.1466 21.0985 17.0252 21.319C15.9038 21.5395 14.7415 21.4263 13.6852 20.9938C12.6289 20.5613 11.726 19.8289 11.0908 18.8892C10.4556 17.9494 10.1166 16.8446 10.1166 15.7144C10.1166 14.1989 10.7256 12.7454 11.8097 11.6738C12.8939 10.6021 14.3642 10.0001 15.8974 10.0001Z" fill="#FEA82F"/>
</svg>
