<svg width="30" height="35" viewBox="0 0 30 35" fill="none" xmlns="http://www.w3.org/2000/svg">
<path d="M1.85003 14.7793L0.0216533 31.1127L2.35765 31.3717L4.18603 15.036L1.85003 14.7793ZM3.52565 35H26.4767V32.6667H3.52565V35ZM29.9807 31.1127L28.1523 14.7793L25.8163 15.036L27.6447 31.3717L29.9807 31.1127ZM24.646 11.6667H5.35637V14H24.6507L24.646 11.6667ZM28.1523 14.7793C28.0563 13.9233 27.6458 13.1326 26.9993 12.5583C26.3528 11.984 25.5134 11.6665 24.646 11.6667L24.6483 14C24.9376 14 25.2167 14.1059 25.4322 14.2975C25.6477 14.4891 25.7845 14.7529 25.8163 15.0383L28.1523 14.7793ZM26.4767 35C26.9724 34.9997 27.4625 34.8957 27.9149 34.6946C28.3673 34.4936 28.772 34.2001 29.1024 33.8332C29.4329 33.4664 29.6817 33.0345 29.8326 32.5657C29.9835 32.0969 30.0356 31.6018 29.9807 31.1127L27.6447 31.3717C27.6632 31.5349 27.6468 31.6978 27.5966 31.8543C27.5463 32.0108 27.4634 32.155 27.3531 32.2775C27.2429 32.4 27.1078 32.498 26.9568 32.565C26.8057 32.6321 26.6421 32.6667 26.4767 32.6667V35ZM0.0216533 31.1127C-0.0332248 31.602 0.0164944 32.0973 0.167563 32.5662C0.318632 33.0352 0.567651 33.4672 0.898351 33.8341C1.22905 34.201 1.63399 34.4945 2.08672 34.6954C2.53944 34.8963 3.02976 35.0001 3.52565 35V32.6667C3.36043 32.6667 3.19706 32.6321 3.04621 32.5652C2.89536 32.4983 2.76042 32.4005 2.6502 32.2783C2.53998 32.1561 2.45696 32.0122 2.40655 31.856C2.35614 31.6997 2.33948 31.5347 2.35765 31.3717L0.0216533 31.1127ZM4.18603 15.036C4.21838 14.751 4.35538 14.4877 4.57084 14.2966C4.78629 14.1055 5.06746 13.9999 5.35637 14V11.6667C4.48932 11.6671 3.65049 11.9848 3.0045 12.5591C2.35851 13.1333 1.94598 13.9237 1.85003 14.7793L4.18603 15.036ZM9.12593 9.33333V8.16667H6.77583V9.33333H9.12593ZM20.8764 8.16667V9.33333H23.2265V8.16667H20.8764ZM15.0012 2.33333C16.5594 2.33333 18.0538 2.94791 19.1556 4.04188C20.2574 5.13584 20.8764 6.61957 20.8764 8.16667H23.2265C23.2265 6.00073 22.3599 3.92351 20.8174 2.39196C19.2748 0.860414 17.1827 0 15.0012 0V2.33333ZM9.12593 8.16667C9.12593 6.61957 9.74493 5.13584 10.8468 4.04188C11.9486 2.94791 13.443 2.33333 15.0012 2.33333V0C12.8197 0 10.7275 0.860414 9.18498 2.39196C7.64243 3.92351 6.77583 6.00073 6.77583 8.16667H9.12593Z" fill="url(#paint0_angular_112_383)"/>
<defs>
<radialGradient id="paint0_angular_112_383" cx="0" cy="0" r="1" gradientUnits="userSpaceOnUse" gradientTransform="translate(18 17.5) rotate(99.7276) scale(17.7553 23.0849)">
<stop offset="0.075" stop-color="#DA4167"/>
<stop offset="1" stop-color="#FEA82F"/>
</radialGradient>
</defs>
</svg>
